# xmcd
#
# Track frame offsets: 
#        150
#        19721
#        42154
#        52651
#        64837
#        74225
#        91337
#        106835
#        119847
#        138956
#        153493
#        165836
#        181697
#        194778
#
# Disc length: 2791 seconds
#
# Revision: 0
# Processed by: cddbd v1.5.2PL0 Copyright (c) Steve Scherf et al.
# Submitted via: ExactAudioCopy v0.99pb5
#
DISCID=bd0ae50e
DTITLE=Lightnin' Hopkins - The Great Electric Show and Dance
DYEAR=1900
DGENRE=Blues
TTITLE0=Lovin' Arms
TTITLE1=Rock My Mama
TTITLE2=Mr. Charlie pt1
TTITLE3=Mr. Charlie pt2
TTITLE4=Play With Your Poodle
TTITLE5=You're Too Fast
TTITLE6=Love Me This Morning
TTITLE7=I'm Comin' Home
TTITLE8=Ride In Your New Automobile
TTITLE9=Breakfast Time
TTITLE10=Uncle Stan
TTITLE11=The Purple Puppy
TTITLE12=Lightnin' Strikes One More Time
TTITLE13=Race Track
EXTD=
EXTT0=
EXTT1=
EXTT2=
EXTT3=
EXTT4=
EXTT5=
EXTT6=
EXTT7=
EXTT8=
EXTT9=
EXTT10=
EXTT11=
EXTT12=
EXTT13=
PLAYORDER=
